<svg width="93" height="100" viewBox="0 0 93 100" fill="none" xmlns="http://www.w3.org/2000/svg">
<path d="M54.3341 39.896C56.1433 38.1815 57.047 36.0864 57.047 33.6126C57.047 31.1379 56.4093 29.2732 55.1378 28.0186C53.8653 26.766 52.3909 26.0086 50.7176 25.7418C49.0433 25.4798 46.6313 25.3459 43.4836 25.3459H38.2598V42.4702H46.4993C49.9139 42.4702 52.5249 41.6125 54.3341 39.896Z" fill="#5058F1"/>
<path d="M47.2001 53.2585H38.2588V72.0648H45.1899C49.7441 72.0648 53.1936 71.405 55.5386 70.0845C57.8817 68.7649 59.0552 66.3905 59.0552 62.9576C59.0552 59.5276 58.1321 57.0529 56.2928 55.5344C54.4496 54.0188 51.4193 53.2585 47.2001 53.2585Z" fill="#5058F1"/>
<path d="M67.5441 77.5564C63.1569 80.7589 56.6101 82.5222 47.9037 82.8521H19.2725L18.267 74.637C19.1386 73.5173 20.9798 72.4272 23.7936 71.3705V26.1387C21.0468 25.1509 19.2055 24.0283 18.267 22.7747L19.2725 14.5596H42.0771C49.9789 14.5596 55.7239 15.0387 59.3074 15.9949C62.889 16.9531 65.4495 18.0901 66.9928 19.4097C70.4074 22.3147 72.1157 26.7669 72.1157 32.7721C72.1157 37.2588 69.6707 41.515 64.7817 45.5398C71.0111 48.6418 74.1258 54.4146 74.1258 62.8591C74.1258 69.4581 71.9313 74.3578 67.5441 77.5564ZM0 0V97.4107H52.4423L92.3928 58.0521V0H0Z" fill="#5058F1"/>
<path d="M63.9238 99.9009C64.0393 99.9009 63.9238 69.6838 63.9238 69.6838H92.3949" fill="#5058F1"/>
</svg>
