<svg width="110" height="81" viewBox="0 0 110 81" fill="none" xmlns="http://www.w3.org/2000/svg">
<path d="M52.1992 33.4076C52.1992 37.7269 55.7007 41.2283 60.0199 41.2283C64.3392 41.2283 67.8406 37.7269 67.8406 33.4076C67.8406 29.0881 64.3392 25.5869 60.0199 25.5869C55.7007 25.5869 52.1992 29.0881 52.1992 33.4076Z" fill="#383233"/>
<path d="M108.835 25.5943C107.84 19.0261 105.671 12.8413 102.557 7.25517L94.2577 11.3289L83.7883 16.4645C77.8648 6.59753 67.0627 0 54.7186 0C42.3745 0 31.5724 6.59753 25.6445 16.4604L15.175 11.3248L6.87532 7.25517C3.75782 12.8413 1.59248 19.0261 0.598096 25.5943C0.269569 27.7389 0.0671721 29.9253 0 32.1411C0.467565 46.6089 6.54269 59.6565 16.1272 69.1779C17.859 65.567 19.9487 62.4246 22.1392 59.7239C23.9001 57.5583 25.7246 55.6751 27.4854 54.0656C33.1352 48.8922 38.1192 46.516 38.1192 46.516C37.2682 45.3998 36.5267 44.1946 35.9116 42.9183H35.9075C35.5238 42.1175 35.1912 41.2921 34.9131 40.4408C34.2261 38.3808 33.8597 36.1773 33.8597 33.8897C33.8597 29.5754 35.17 25.5647 37.4155 22.2366C41.1654 16.6836 47.5142 13.0311 54.7186 13.0311C61.9186 13.0311 68.2674 16.6836 72.017 22.2366C74.2627 25.5647 75.5728 29.5754 75.5728 33.8897C75.5728 36.1773 75.2061 38.3808 74.5197 40.4408C74.2413 41.2921 73.9087 42.1175 73.5253 42.9183H73.5209C72.9061 44.1946 72.1646 45.3998 71.3136 46.516C71.3136 46.516 76.2976 48.8922 81.9471 54.0656C83.7082 55.6751 85.5327 57.5583 87.2895 59.728C89.4841 62.4284 91.5738 65.567 93.3056 69.1779C102.899 59.648 108.978 46.5834 109.433 32.0992C109.361 29.8957 109.159 27.7262 108.835 25.5943Z" fill="#383233"/>
<path d="M82.0582 63.9799C81.4252 63.1979 81.1128 62.8251 80.4197 62.0795C73.261 67.1608 64.1623 69.7652 54.7183 69.7652C45.2728 69.7652 36.2152 67.1065 29.0556 62.0278C28.3625 62.7723 28.0031 63.1965 27.369 63.9761C25.6891 66.0467 25.5277 66.255 24.1611 68.5116C33.9143 76.3953 45.3799 80.6433 54.7183 80.6433C63.1125 80.6433 76.5011 76.4666 85.5166 68.9213C84.2946 66.6434 83.7437 66.0535 82.0582 63.9799Z" fill="#383233"/>
</svg>
