<svg width="66" height="68" viewBox="0 0 66 68" fill="none" xmlns="http://www.w3.org/2000/svg">
<rect width="65.8536" height="67.6875" rx="12" fill="#CFFF72"/>
<path d="M55.8536 10V22.8395L54.1223 24.5696L46.6833 32.0099L35.563 43.129L33.8438 44.8494H19.1705V48.5171H34.9314L38.5991 44.8494L46.798 36.6491L47.8399 35.6084L55.8536 35.6775V48.5171L46.6833 57.6875H32.9262L42.098 48.5171H46.6833V44.8494H41.1803L37.5128 48.5171L29.5294 56.4991L28.3408 57.6875H10V44.8494L19.1705 35.6775H40.4079L46.6833 29.4023V19.1705H38.0655V23.3923L28.8937 32.5627V19.7233H19.7233V23.3923H25.4513L16.2104 32.6317H10.5528V19.7233L19.7233 10.5528H38.0655V18.6178L46.6833 10H55.8536Z" fill="#121212"/>
</svg>
