<svg width="100" height="86" viewBox="0 0 100 86" fill="none" xmlns="http://www.w3.org/2000/svg">
<path fill-rule="evenodd" clip-rule="evenodd" d="M57.0456 61.9933H71.1486V85.7377H41.0693C18.9439 85.7377 2.45251 79.9932 0.223293 60.3898C-1.77846 42.7011 9.68608 30.2405 34.3137 32.102C40.7663 32.5883 45.9221 33.8648 50.1985 35.3617C52.8599 36.3191 54.6115 38.8799 54.5584 41.7141C54.5205 45.0877 54.4295 49.6311 54.3688 53.0275C54.3537 53.8709 53.8533 54.6308 53.0875 54.9879C52.3216 55.345 51.4193 55.2386 50.7672 54.7067C45.6643 50.5885 35.8906 43.7271 27.3377 43.7271C22.2803 43.7271 18.1781 47.8378 18.1781 52.9058C18.1781 57.9738 22.2803 62.0845 27.3377 62.0845H57.0456V61.9933Z" fill="#E152C1"/>
<path fill-rule="evenodd" clip-rule="evenodd" d="M57.3017 38.0445C57.423 30.7654 58.0675 25.8569 54.7767 23.3571C48.9762 18.9577 44.1917 21.3508 40.0366 25.8718C37.5117 28.6147 33.5234 28.7291 33.5234 23.2888C33.5234 15.6678 36.5485 7.94782 44.0399 3.13055C48.468 0.288821 53.2904 0 58.6208 0C66.7491 0 72.982 4.90106 76.5305 12.5601C79.4421 18.8362 80.6023 28.1207 80.6023 37.5273V78.7706C80.6023 82.6229 77.4936 85.7381 73.6494 85.7381C70.5861 85.7381 66.9921 85.7381 63.9137 85.7381C62.0636 85.7381 60.2815 84.9935 58.9774 83.679C57.6732 82.3569 56.9529 80.5712 56.9681 78.7172C57.0743 65.4507 57.3017 38.0445 57.3017 38.0445Z" fill="#E884E9"/>
<path fill-rule="evenodd" clip-rule="evenodd" d="M83.8008 56.8502C83.8008 56.0599 84.2739 55.2696 85.0231 54.8744C85.7724 54.4792 86.6662 54.6108 87.3366 55.0719C89.7749 57.0477 92.6077 59.9457 95.23 63.8973C100.744 72.2615 99.9226 81.284 95.723 83.9184C93.1861 85.5648 90.5309 85.7624 87.2185 83.9184C85.1285 82.8646 83.8204 80.6912 83.8204 78.3203C83.8006 71.6684 83.8008 56.8502 83.8008 56.8502Z" fill="#E152C1"/>
</svg>
