<svg width="95" height="103" viewBox="0 0 95 103" fill="none" xmlns="http://www.w3.org/2000/svg">
<path d="M89.3071 73.1793C88.6459 72.0121 87.4035 71.288 86.0609 71.288H29.6566L12.3273 41.2666L29.6566 11.244H64.3274L81.6567 41.2666L71.2234 59.3312C70.9142 59.8686 70.913 60.5354 71.2234 61.0729C71.5337 61.6103 72.1116 61.9443 72.7492 61.9443L80.4232 61.8712C81.8602 61.8577 83.1993 61.0751 83.9178 59.8293L93.2537 43.6492L94.3073 41.8299L93.9486 41.6219C94.0194 40.7696 93.844 39.9004 93.4044 39.1381L72.0374 2.12624C71.2785 0.815189 69.8673 0 68.3528 0H25.6301C24.1155 0 22.7044 0.815189 21.9466 2.12736L0.568384 39.1392C-0.189461 40.4514 -0.189461 42.0818 0.568384 43.3939L21.9466 80.4058C22.7044 81.7168 24.1155 82.532 25.6301 82.532H91.2399C91.946 82.532 92.5791 82.1677 92.9355 81.5583C93.2908 80.9477 93.2964 80.2157 92.9479 79.5996L89.3071 73.1793Z" fill="#B32527"/>
<path d="M63.4001 90.998H30.5834C29.7739 90.998 29.0452 91.4163 28.6382 92.1168C28.2312 92.8162 28.2256 93.655 28.6247 94.36L32.0733 100.441C32.7029 101.552 33.8869 102.242 35.1642 102.242H58.8216C60.0966 102.242 61.2806 101.552 61.9114 100.441L65.3588 94.36C65.7591 93.655 65.7535 92.8162 65.3453 92.1168C64.9383 91.4163 64.2108 90.998 63.4001 90.998Z" fill="#B32527"/>
<path d="M53.3279 34.7552C54.8964 36.652 55.5272 39.1493 55.0572 41.6084C54.4377 44.8466 51.8471 47.4372 48.6099 48.0557C48.0702 48.1591 47.5249 48.2108 46.9885 48.2108C44.5328 48.2108 42.2222 47.1213 40.6503 45.2199C39.0818 43.3231 38.4521 40.8258 38.921 38.3667C39.5394 35.1296 42.13 32.5378 45.3683 31.9205C45.9069 31.8171 46.4533 31.7643 46.9896 31.7643C49.4453 31.7643 51.756 32.8549 53.3279 34.7552ZM43.7604 66.8129H50.2167C51.5367 66.8129 52.6105 65.7391 52.6105 64.419V58.8521C52.6105 58.6711 52.7601 58.5587 52.8882 58.5171C61.0042 55.9298 66.4564 48.4829 66.4564 39.9881C66.4564 29.2535 57.722 20.5203 46.9874 20.5203C46.6748 20.5203 46.3622 20.5281 46.044 20.5428C36.1021 21.0161 27.9738 29.1781 27.5398 39.1257C27.1597 47.8758 32.73 55.85 41.0866 58.5171C41.217 58.5576 41.3665 58.6711 41.3665 58.8544V64.419C41.3665 65.7391 42.4403 66.8129 43.7604 66.8129Z" fill="#B32527"/>
</svg>
