<svg width="130" height="15" viewBox="0 0 130 15" fill="none" xmlns="http://www.w3.org/2000/svg">
<path d="M9.8538 10.3465C9.60838 11.7129 9.02719 12.7636 8.11011 13.4984C7.19302 14.2332 6.08859 14.6006 4.7969 14.6006C3.90565 14.6006 3.14999 14.433 2.52998 14.0978C1.9229 13.7498 1.48373 13.2405 1.21247 12.5702C0.954138 11.8999 0.908988 11.0812 1.0769 10.1144H3.98315C3.90565 10.5269 3.89917 10.875 3.96375 11.1586C4.02834 11.4293 4.16399 11.642 4.37063 11.7967C4.5773 11.9385 4.84856 12.0094 5.18439 12.0094C5.50731 12.0094 5.78504 11.9449 6.01754 11.816C6.26295 11.6742 6.46316 11.4809 6.61816 11.236C6.77316 10.9781 6.88298 10.6816 6.94756 10.3465L8.38235 2.33022L6.94756 0.832653H11.5201L9.8538 10.3465ZM29.7342 0.600586C30.6513 0.60059 31.4328 0.755334 32.0786 1.06472C32.7374 1.36122 33.2282 1.80599 33.5511 2.39898C33.874 2.99197 33.9838 3.72031 33.8805 4.58401H30.761C30.8127 4.26173 30.774 3.98455 30.6449 3.75251C30.5286 3.52047 30.3477 3.34642 30.1023 3.2304C29.8569 3.10149 29.5662 3.03704 29.2304 3.03704C28.8946 3.03704 28.591 3.09511 28.3198 3.21113C28.0614 3.32715 27.8547 3.49474 27.6997 3.71389C27.5448 3.93303 27.4608 4.19085 27.4479 4.48733C27.435 4.70647 27.4673 4.89983 27.5448 5.06741C27.6352 5.2221 27.7579 5.36393 27.9129 5.49284C28.0679 5.60886 28.2552 5.72492 28.4748 5.84094C28.6944 5.94407 28.9334 6.04721 29.1917 6.15034C29.4629 6.24057 29.7407 6.33725 30.0248 6.44038C30.4769 6.59507 30.8967 6.78197 31.2842 7.00111C31.6717 7.22026 32.014 7.47814 32.3111 7.77464C32.6082 8.05825 32.8343 8.39987 32.9893 8.7995C33.1442 9.19912 33.2088 9.65675 33.183 10.1724C33.1572 11.049 32.8988 11.8225 32.4079 12.4928C31.93 13.1502 31.2778 13.6659 30.4511 14.0398C29.6244 14.4136 28.6814 14.6006 27.6223 14.6006C26.6277 14.6006 25.7623 14.433 25.026 14.0978C24.3027 13.7627 23.7666 13.2792 23.4178 12.6475C23.0691 12.003 22.9658 11.2101 23.1079 10.2691H26.1885C26.1368 10.6558 26.1756 10.9974 26.3048 11.2939C26.4468 11.5775 26.6665 11.7967 26.9636 11.9514C27.2606 12.0932 27.603 12.1641 27.9904 12.1641C28.3908 12.1641 28.7396 12.0997 29.0366 11.9708C29.3337 11.829 29.5663 11.6355 29.7342 11.3906C29.915 11.1328 30.0119 10.8363 30.0248 10.5011C30.0378 10.2691 29.9925 10.0628 29.8892 9.88234C29.7988 9.68897 29.6567 9.52139 29.4629 9.37958C29.2692 9.22489 29.0431 9.08953 28.7848 8.97351C28.5394 8.85749 28.2681 8.74789 27.9711 8.64476C27.674 8.52874 27.3704 8.41914 27.0604 8.31601C26.1433 7.99373 25.4458 7.55543 24.9679 7.00111C24.49 6.44679 24.2704 5.75713 24.3091 4.93211C24.3479 4.0555 24.6062 3.29488 25.0841 2.65031C25.562 1.99287 26.2014 1.49011 27.0023 1.14205C27.816 0.781091 28.7267 0.600586 29.7342 0.600586ZM87.454 10.3465C87.2085 11.7129 86.6274 12.7636 85.7103 13.4984C84.7932 14.2332 83.6887 14.6006 82.3971 14.6006C81.5058 14.6006 80.7502 14.433 80.1301 14.0978C79.5231 13.7498 79.0839 13.2405 78.8126 12.5702C78.5543 11.8999 78.5091 11.0812 78.6771 10.1144H81.5833C81.5058 10.5269 81.4993 10.875 81.5639 11.1586C81.6285 11.4293 81.7641 11.642 81.9708 11.7967C82.1775 11.9385 82.4487 12.0094 82.7846 12.0094C83.1075 12.0094 83.3852 11.9449 83.6177 11.816C83.8631 11.6742 84.0633 11.4809 84.2183 11.236C84.3733 10.9781 84.4831 10.6816 84.5477 10.3465L85.9825 2.33022L84.5477 0.832653H89.1203L87.454 10.3465ZM98.0636 0.600586C99.2519 0.600586 100.285 0.864846 101.164 1.39338C102.042 1.92192 102.714 2.65033 103.179 3.5785C103.657 4.50667 103.863 5.56377 103.799 6.74977C103.76 7.85841 103.521 8.88969 103.082 9.84363C102.656 10.7976 102.074 11.6291 101.338 12.3381C100.615 13.0472 99.7751 13.6015 98.8193 14.0012C97.8764 14.4008 96.8624 14.6006 95.7774 14.6006C94.589 14.6006 93.5492 14.3362 92.6579 13.8077C91.7796 13.2792 91.1014 12.5508 90.6235 11.6227C90.1585 10.6945 89.9583 9.63093 90.0229 8.43205C90.0617 7.33631 90.2942 6.31147 90.7204 5.35754C91.1466 4.40359 91.7214 3.57205 92.4448 2.86303C93.181 2.15401 94.0272 1.59965 94.983 1.20002C95.9388 0.800407 96.9657 0.600589 98.0636 0.600586ZM111.663 0.600586C112.58 0.600591 113.361 0.755334 114.007 1.06472C114.666 1.36122 115.157 1.80599 115.48 2.39898C115.802 2.99197 115.912 3.72031 115.809 4.58401H112.69C112.741 4.26173 112.702 3.98455 112.573 3.75251C112.457 3.52047 112.276 3.34642 112.031 3.2304C111.785 3.1015 111.495 3.03704 111.159 3.03704C110.823 3.03704 110.519 3.09511 110.248 3.21113C109.99 3.32715 109.783 3.49474 109.628 3.71389C109.473 3.93304 109.389 4.19083 109.376 4.48733C109.363 4.70647 109.396 4.89983 109.473 5.06741C109.564 5.2221 109.686 5.36393 109.841 5.49284C109.996 5.60886 110.184 5.72492 110.403 5.84094C110.623 5.94407 110.862 6.04721 111.12 6.15034C111.391 6.24057 111.669 6.33725 111.953 6.44038C112.405 6.59507 112.825 6.78197 113.213 7.00111C113.6 7.22026 113.942 7.47814 114.24 7.77464C114.537 8.05825 114.763 8.39987 114.918 8.7995C115.073 9.19912 115.137 9.65675 115.111 10.1724C115.086 11.049 114.827 11.8225 114.336 12.4928C113.858 13.1502 113.206 13.6659 112.38 14.0398C111.553 14.4136 110.61 14.6006 109.551 14.6006C108.556 14.6006 107.691 14.433 106.954 14.0978C106.231 13.7627 105.695 13.2792 105.346 12.6475C104.998 12.003 104.894 11.2101 105.036 10.2691H108.117C108.065 10.6558 108.104 10.9974 108.233 11.2939C108.375 11.5775 108.595 11.7967 108.892 11.9514C109.189 12.0932 109.531 12.1641 109.919 12.1641C110.319 12.1641 110.668 12.0997 110.965 11.9708C111.262 11.829 111.495 11.6355 111.663 11.3906C111.843 11.1328 111.94 10.8363 111.953 10.5011C111.966 10.2691 111.921 10.0628 111.818 9.88234C111.727 9.68897 111.585 9.52139 111.391 9.37958C111.198 9.22489 110.972 9.08953 110.713 8.97351C110.468 8.85749 110.197 8.74789 109.899 8.64476C109.602 8.52874 109.299 8.41914 108.989 8.31601C108.072 7.99373 107.374 7.55543 106.896 7.00111C106.418 6.44679 106.199 5.75713 106.238 4.93211C106.276 4.0555 106.535 3.29488 107.013 2.65031C107.49 1.99287 108.13 1.49011 108.931 1.14205C109.744 0.781091 110.655 0.600586 111.663 0.600586ZM120.348 9.08954C120.258 9.68254 120.264 10.1918 120.368 10.6172C120.484 11.0426 120.716 11.3648 121.065 11.584C121.414 11.8031 121.885 11.9127 122.479 11.9127C123.048 11.9127 123.545 11.8096 123.971 11.6033C124.398 11.3842 124.753 11.0683 125.037 10.6558C125.321 10.2304 125.515 9.70832 125.618 9.08954L127.071 0.832653H129.978L128.524 9.08954C128.305 10.3271 127.872 11.3584 127.226 12.1834C126.581 12.9956 125.799 13.6015 124.882 14.0012C123.978 14.4008 123.003 14.6006 121.956 14.6006C120.858 14.6006 119.935 14.3879 119.186 13.9624C118.449 13.5241 117.926 12.8925 117.616 12.0675C117.319 11.2424 117.268 10.2498 117.461 9.08954L118.914 0.832653H121.821L120.348 9.08954ZM22.4633 3.13372H16.612L16.0501 6.38232H21.3202L20.9327 8.58679H15.6626L15.0426 12.0675H20.894L20.4871 14.3685H11.7295L14.1126 0.832653H22.8896L22.4633 3.13372ZM39.1701 11.0812L43.6264 0.832653H46.8427L47.5595 11.0619L51.5702 0.832653H54.709L48.7027 14.3685H45.2151L44.4595 4.91276L40.2939 14.3685H36.8063L35.7019 0.832653H38.8019L39.1701 11.0812ZM57.019 14.3685H54.1128L56.496 0.832653H59.4022L57.019 14.3685ZM69.2677 9.80501L70.8565 0.832653H73.7627L71.3796 14.3685H68.4733L64.1139 5.39616L62.5251 14.3685H59.6188L62.002 0.832653H64.9276L69.2677 9.80501ZM97.6761 3.2304C97.0432 3.2304 96.4491 3.35292 95.8936 3.59785C95.3511 3.84278 94.8667 4.19726 94.4405 4.66134C94.0142 5.11253 93.6719 5.64113 93.4136 6.24702C93.1682 6.8529 93.0325 7.51679 93.0067 8.23869C92.968 8.99927 93.0648 9.66322 93.2973 10.2304C93.5298 10.7848 93.8851 11.2166 94.363 11.526C94.8538 11.8354 95.448 11.99 96.1455 11.99C96.7784 11.99 97.3661 11.8676 97.9086 11.6227C98.4641 11.3648 98.9549 11.0103 99.3811 10.5591C99.8074 10.095 100.143 9.56005 100.389 8.95416C100.647 8.33538 100.789 7.66503 100.815 6.94313C100.854 6.19544 100.763 5.54441 100.544 4.99008C100.324 4.42287 99.9753 3.99103 99.4974 3.69453C99.0195 3.38515 98.4124 3.2304 97.6761 3.2304Z" fill="#FAFAFA"/>
</svg>
