<svg width="98" height="97" viewBox="0 0 98 97" fill="none" xmlns="http://www.w3.org/2000/svg">
<path d="M85.843 31.7367C83.6361 33.7828 78.3453 38.1189 72.9044 42.783C69.5157 45.6874 66.2587 49.4287 64.4892 49.7592C63.6195 49.9219 62.7772 49.2113 62.2743 48.483C61.1244 46.8178 59.4513 43.491 56.7971 38.9763C54.8827 35.7193 53.7018 33.8667 52.6386 31.4176C51.5488 28.9092 52.8365 27.5561 56.0051 23.5946C59.8561 18.7812 65.64 14.308 70.2484 11.5177C73.1571 9.7562 76.1923 8.36148 79.5995 9.09773C83.72 9.98865 86.4741 13.3155 87.7999 17.1637C89.5941 22.3732 89.3882 28.4487 85.843 31.7367ZM88.6837 72.7853C88.5511 73.9723 88.3417 75.1523 88.0199 76.3216C86.2735 82.6791 80.5691 88.326 73.5893 87.6729C72.1637 87.5394 70.5692 86.9393 70.0018 85.6259C69.2514 83.8873 69.0251 79.7854 68.8112 77.726C68.4807 74.53 67.9539 69.7696 67.512 65.4626C66.9631 60.1224 70.4075 56.2061 73.3887 52.8607C76.8119 49.0195 80.8307 46.1054 84.4236 43.3991C87.3252 41.2133 88.1826 41.87 88.5529 43.0146C88.7412 43.5962 88.7297 44.2219 88.7164 44.8336C88.6033 50.0739 88.6192 55.316 88.6546 60.5564C88.6811 64.6185 89.1336 68.7426 88.6837 72.7853ZM46.4878 87.7418C45.3335 87.5032 44.2871 87.0073 43.4828 86.0404C42.6979 85.0956 42.4327 83.8325 42.256 82.6173C40.9284 73.5163 39.9774 65.3725 35.3708 57.188C31.2582 49.8821 25.3117 43.6412 18.1048 39.3351C15.706 37.9024 12.0981 37.0672 10.2951 34.9168C8.30642 32.5445 8.69266 29.1682 8.6794 26.2939C8.65466 20.9864 9.06918 15.5834 15.8872 17.2672C36.4959 22.3572 50.9097 40.1589 56.7255 59.9421C58.7689 66.8936 59.9047 74.1959 60.3811 81.4161C60.4589 82.5881 60.5137 83.791 60.1645 84.9126C59.2471 87.8567 56.0334 87.8956 53.4729 87.7851C51.3941 87.6959 48.7355 88.2067 46.4878 87.7418ZM23.6713 87.5801C22.113 87.5279 20.5743 87.3803 19.0213 86.8376C16.6641 86.0148 14.5411 84.5768 12.8583 82.7375C10.1466 79.7739 8.91451 76.2032 8.87297 72.2541C8.87297 68.1769 8.78723 64.0971 8.74481 60.0199C8.70327 56.0408 8.39481 52.0687 8.72802 48.0914C8.77751 47.5063 8.86943 46.8982 9.20883 46.4183C11.3778 43.3575 17.6363 48.9435 19.3457 50.4425C22.5391 53.2434 25.2118 56.6807 27.2456 60.4043C29.6381 64.7856 31.2264 69.5672 32.2473 74.4434C32.5796 76.0317 32.8527 77.6323 33.0754 79.2392C33.2787 80.7011 33.6446 82.2027 33.4961 83.6867C33.3149 85.4977 32.1332 86.9605 30.3744 87.4431C29.3403 87.7268 28.2496 87.7065 27.1784 87.6578C25.9896 87.6039 24.8247 87.6181 23.6713 87.5801ZM96.1452 13.9165C94.8901 10.3192 92.8573 7.25225 90.1085 4.78631C83.7801 -0.914522 74.2434 -1.59509 66.9339 3.13351C59.9781 7.63231 51.2191 14.5529 45.6685 23.5151C34.7795 13.3685 22.6707 9.57678 15.1492 8.17145C8.92688 7.00477 2.85484 10.7081 1.02527 16.789C0.335866 19.0958 0 20.9873 0 22.5782V72.7897C0 85.8672 10.6009 96.4681 23.6783 96.4681H73.8898C86.962 96.4681 97.5593 85.8707 97.5593 72.7986V22.5782C97.5593 19.4936 97.0821 16.5769 96.1452 13.9165Z" fill="#726750"/>
</svg>
